<?xml version="1.0" encoding="utf-8"?>
<!-- Generator: Adobe Illustrator 23.0.3, SVG Export Plug-In . SVG Version: 6.00 Build 0)  -->
<!DOCTYPE svg PUBLIC "-//W3C//DTD SVG 1.1//EN" "http://www.w3.org/Graphics/SVG/1.1/DTD/svg11.dtd" [
	<!ENTITY ns_extend "http://ns.adobe.com/Extensibility/1.0/">
	<!ENTITY ns_ai "http://ns.adobe.com/AdobeIllustrator/10.0/">
	<!ENTITY ns_graphs "http://ns.adobe.com/Graphs/1.0/">
	<!ENTITY ns_vars "http://ns.adobe.com/Variables/1.0/">
	<!ENTITY ns_imrep "http://ns.adobe.com/ImageReplacement/1.0/">
	<!ENTITY ns_sfw "http://ns.adobe.com/SaveForWeb/1.0/">
	<!ENTITY ns_custom "http://ns.adobe.com/GenericCustomNamespace/1.0/">
	<!ENTITY ns_adobe_xpath "http://ns.adobe.com/XPath/1.0/">
]>
<svg version="1.1" id="Layer_1" xmlns:x="&ns_extend;" xmlns:i="&ns_ai;" xmlns:graph="&ns_graphs;"
	 xmlns="http://www.w3.org/2000/svg" xmlns:xlink="http://www.w3.org/1999/xlink" x="0px" y="0px" viewBox="0 0 512 512"
	 style="enable-background:new 0 0 512 512;" xml:space="preserve">
<style type="text/css">
	.st0{fill:#4F76BB;}
	.st1{fill-rule:evenodd;clip-rule:evenodd;fill:#FFFFFF;}
	.st2{fill:#09ABE0;}
</style>
<metadata>
	<sfw  xmlns="&ns_sfw;">
		<slices></slices>
		<sliceSourceBounds  bottomLeftOrigin="true" height="277.3" width="144.7" x="183.6" y="117.4"></sliceSourceBounds>
	</sfw>
</metadata>
<g>
	<g>
		<path class="st0" d="M278.1,183.7c-0.3,10.8-0.4,35.5-0.4,35.5s27.6,0.1,39.7,0h9.5c-2.2,17.1-4.3,33.5-6.5,50.1h-42.4v125.3
			h-51.9V269.2h-42.5v-49.9h42.7v-3.8c0-10.1-0.2-20.1,0-30.1c0.2-6.4,0.5-12.9,1.6-19.2c2.6-15.2,9.6-28.1,22.4-37.3
			c11.1-7.9,23.8-11.2,37.3-11.5c8.9-0.2,17.7,0.2,26.5,0.6c4.8,0.2,9.6,0.8,14.2,1.3V164h-3.5c-8.6,0-17.2-0.2-25.8,0.1
			C287.4,164.5,278.6,169,278.1,183.7z"/>
		<path class="st1" d="M278.1,183.7c-0.3,10.8-0.4,35.5-0.4,35.5s27.6,0.1,39.7,0h9.5c-2.2,17.1-4.3,33.5-6.5,50.1h-42.4v125.3
			h-51.9V269.2h-42.5v-49.9h42.7v-3.8c0-10.1-0.2-20.1,0-30.1c0.2-6.4,0.5-12.9,1.6-19.2c2.6-15.2,9.6-28.1,22.4-37.3
			c11.1-7.9,23.8-11.2,37.3-11.5c8.9-0.2,17.7,0.2,26.5,0.6c4.8,0.2,9.6,0.8,14.2,1.3V164h-3.5c-8.6,0-17.2-0.2-25.8,0.1
			C287.4,164.5,278.6,169,278.1,183.7z"/>
	</g>
	<path class="st2" d="M278.1,183.7c-0.3,10.8-0.4,35.5-0.4,35.5s27.6,0.1,39.7,0h9.5c-2.2,17.1-4.3,33.5-6.5,50.1h-42.4v125.3h-51.9
		V269.2h-42.5v-49.9h42.7v-3.8c0-10.1-0.2-20.1,0-30.1c0.2-6.4,0.5-12.9,1.6-19.2c2.6-15.2,9.6-28.1,22.4-37.3
		c11.1-7.9,23.8-11.2,37.3-11.5c8.9-0.2,17.7,0.2,26.5,0.6c4.8,0.2,9.6,0.8,14.2,1.3V164h-3.5c-8.6,0-17.2-0.2-25.8,0.1
		C287.4,164.5,278.6,169,278.1,183.7z"/>
</g>
</svg>
