<?xml version="1.0" encoding="utf-8"?>
<!-- Generator: Adobe Illustrator 24.2.1, SVG Export Plug-In . SVG Version: 6.00 Build 0)  -->
<!DOCTYPE svg PUBLIC "-//W3C//DTD SVG 1.1//EN" "http://www.w3.org/Graphics/SVG/1.1/DTD/svg11.dtd" [
	<!ENTITY ns_extend "http://ns.adobe.com/Extensibility/1.0/">
	<!ENTITY ns_ai "http://ns.adobe.com/AdobeIllustrator/10.0/">
	<!ENTITY ns_graphs "http://ns.adobe.com/Graphs/1.0/">
	<!ENTITY ns_vars "http://ns.adobe.com/Variables/1.0/">
	<!ENTITY ns_imrep "http://ns.adobe.com/ImageReplacement/1.0/">
	<!ENTITY ns_sfw "http://ns.adobe.com/SaveForWeb/1.0/">
	<!ENTITY ns_custom "http://ns.adobe.com/GenericCustomNamespace/1.0/">
	<!ENTITY ns_adobe_xpath "http://ns.adobe.com/XPath/1.0/">
]>
<svg version="1.1" id="Layer_1" xmlns:x="&ns_extend;" xmlns:i="&ns_ai;" xmlns:graph="&ns_graphs;"
	 xmlns="http://www.w3.org/2000/svg" xmlns:xlink="http://www.w3.org/1999/xlink" x="0px" y="0px" viewBox="0 0 152.3 145.1"
	 style="enable-background:new 0 0 152.3 145.1;" xml:space="preserve">
<style type="text/css">
	.st0{fill:#FFFFFF;}
</style>
<metadata>
	<sfw  xmlns="&ns_sfw;">
		<slices></slices>
		<sliceSourceBounds  bottomLeftOrigin="true" height="145.1" width="152.3" x="55.5" y="86"></sliceSourceBounds>
	</sfw>
</metadata>
<polygon class="st0" points="69.4,0 69.4,18 100.4,35.9 113.8,25.8 "/>
<polygon class="st0" points="60.3,0 60.3,18 20.5,41.5 4.5,32.2 "/>
<polygon class="st0" points="0,40.1 15.4,49.2 15.4,94.7 0,103.8 "/>
<polygon class="st0" points="3.5,111.9 18.9,103.1 60.2,126.7 60.2,145.1 "/>
<polygon class="st0" points="69.5,145.1 69.5,127 110.8,102.9 126.6,112.1 "/>
<polygon class="st0" points="129.7,47.4 129.7,103.5 114.2,94.4 114.2,64.5 "/>
<polygon class="st0" points="51.3,60.6 36.9,75.1 65.6,104.6 152.3,7.9 66,75.4 "/>
</svg>
