<?xml version="1.0" encoding="utf-8"?>
<!-- Generator: Adobe Illustrator 23.0.3, SVG Export Plug-In . SVG Version: 6.00 Build 0)  -->
<!DOCTYPE svg PUBLIC "-//W3C//DTD SVG 1.1//EN" "http://www.w3.org/Graphics/SVG/1.1/DTD/svg11.dtd" [
	<!ENTITY ns_extend "http://ns.adobe.com/Extensibility/1.0/">
	<!ENTITY ns_ai "http://ns.adobe.com/AdobeIllustrator/10.0/">
	<!ENTITY ns_graphs "http://ns.adobe.com/Graphs/1.0/">
	<!ENTITY ns_vars "http://ns.adobe.com/Variables/1.0/">
	<!ENTITY ns_imrep "http://ns.adobe.com/ImageReplacement/1.0/">
	<!ENTITY ns_sfw "http://ns.adobe.com/SaveForWeb/1.0/">
	<!ENTITY ns_custom "http://ns.adobe.com/GenericCustomNamespace/1.0/">
	<!ENTITY ns_adobe_xpath "http://ns.adobe.com/XPath/1.0/">
]>
<svg version="1.1" id="Layer_1" xmlns:x="&ns_extend;" xmlns:i="&ns_ai;" xmlns:graph="&ns_graphs;"
	 xmlns="http://www.w3.org/2000/svg" xmlns:xlink="http://www.w3.org/1999/xlink" x="0px" y="0px" viewBox="0 0 512 512"
	 style="enable-background:new 0 0 512 512;" xml:space="preserve">
<style type="text/css">
	.st0{fill:#34C4F3;}
	.st1{fill-rule:evenodd;clip-rule:evenodd;fill:#FFFFFF;}
	.st2{fill:#09ABE0;}
</style>
<metadata>
	<sfw  xmlns="&ns_sfw;">
		<slices></slices>
		<sliceSourceBounds  bottomLeftOrigin="true" height="230.7" width="283.5" x="114.3" y="140.7"></sliceSourceBounds>
	</sfw>
</metadata>
<g>
	<g>
		<path class="st0" d="M397.8,168.5c-2.2,2.9-4.4,5.9-6.7,8.7c-6.2,7.6-13.3,14.3-21.2,20.1c-0.7,0.5-1,1-1,1.8
			c0.3,8.6,0,17.3-1.1,25.9c-2.3,18.1-7.3,35.3-15,51.8c-8,17-18.4,32.4-31.5,45.9c-22.2,22.9-48.9,37.7-80,44.6
			c-10.7,2.3-21.5,3.5-32.4,3.9c-33.6,1-64.6-7.4-93.2-25c-0.4-0.2-0.7-0.5-1.4-0.9c20.3,2.2,39.6-0.4,58.2-8
			c10-4,19.2-9.3,27.8-16.1c-30.3-1.1-49.2-22.8-54.2-40.4c8.4,1.6,16.7,1.3,25-0.8c0.2,0,0.4-0.2,0.8-0.4
			c-16.4-3.8-29-12.6-37.8-26.7c-5.8-9.4-8.6-19.7-8.5-31c8.2,4.4,16.7,6.8,25.9,7.1c-12.3-8.9-20.6-20.5-24-35.3
			c-3.4-14.8-1.2-28.9,6.2-42.2c31.5,37.1,71.4,57.5,120.1,60.8c-0.3-2.3-0.7-4.3-0.9-6.4c-1.6-13.7,1.1-26.5,8.5-38.1
			c9.3-14.5,22.5-23.6,39.5-26.3c19.6-3.2,36.7,2.4,51,16.2c1,0.9,1.7,1.2,3.1,0.9c12-2.6,23.2-6.9,33.9-13c0.3-0.1,0.5-0.3,0.8-0.4
			c0.1,0,0.1,0,0.4,0c-4.6,13.5-13,24-24.9,31.7c11.3-1.2,22-4.2,32.4-8.7C397.6,168.3,397.8,168.4,397.8,168.5z"/>
		<path class="st1" d="M397.8,168.5c-2.2,2.9-4.4,5.9-6.7,8.7c-6.2,7.6-13.3,14.3-21.2,20.1c-0.7,0.5-1,1-1,1.8
			c0.3,8.6,0,17.3-1.1,25.9c-2.3,18.1-7.3,35.3-15,51.8c-8,17-18.4,32.4-31.5,45.9c-22.2,22.9-48.9,37.7-80,44.6
			c-10.7,2.3-21.5,3.5-32.4,3.9c-33.6,1-64.6-7.4-93.2-25c-0.4-0.2-0.7-0.5-1.4-0.9c20.3,2.2,39.6-0.4,58.2-8
			c10-4,19.2-9.3,27.8-16.1c-30.3-1.1-49.2-22.8-54.2-40.4c8.4,1.6,16.7,1.3,25-0.8c0.2,0,0.4-0.2,0.8-0.4
			c-16.4-3.8-29-12.6-37.8-26.7c-5.8-9.4-8.6-19.7-8.5-31c8.2,4.4,16.7,6.8,25.9,7.1c-12.3-8.9-20.6-20.5-24-35.3
			c-3.4-14.8-1.2-28.9,6.2-42.2c31.5,37.1,71.4,57.5,120.1,60.8c-0.3-2.3-0.7-4.3-0.9-6.4c-1.6-13.7,1.1-26.5,8.5-38.1
			c9.3-14.5,22.5-23.6,39.5-26.3c19.6-3.2,36.7,2.4,51,16.2c1,0.9,1.7,1.2,3.1,0.9c12-2.6,23.2-6.9,33.9-13c0.3-0.1,0.5-0.3,0.8-0.4
			c0.1,0,0.1,0,0.4,0c-4.6,13.5-13,24-24.9,31.7c11.3-1.2,22-4.2,32.4-8.7C397.6,168.3,397.8,168.4,397.8,168.5z"/>
	</g>
	<path class="st2" d="M397.8,168.5c-2.2,2.9-4.4,5.9-6.7,8.7c-6.2,7.6-13.3,14.3-21.2,20.1c-0.7,0.5-1,1-1,1.8
		c0.3,8.6,0,17.3-1.1,25.9c-2.3,18.1-7.3,35.3-15,51.8c-8,17-18.4,32.4-31.5,45.9c-22.2,22.9-48.9,37.7-80,44.6
		c-10.7,2.3-21.5,3.5-32.4,3.9c-33.6,1-64.6-7.4-93.2-25c-0.4-0.2-0.7-0.5-1.4-0.9c20.3,2.2,39.6-0.4,58.2-8
		c10-4,19.2-9.3,27.8-16.1c-30.3-1.1-49.2-22.8-54.2-40.4c8.4,1.6,16.7,1.3,25-0.8c0.2,0,0.4-0.2,0.8-0.4
		c-16.4-3.8-29-12.6-37.8-26.7c-5.8-9.4-8.6-19.7-8.5-31c8.2,4.4,16.7,6.8,25.9,7.1c-12.3-8.9-20.6-20.5-24-35.3
		c-3.4-14.8-1.2-28.9,6.2-42.2c31.5,37.1,71.4,57.5,120.1,60.8c-0.3-2.3-0.7-4.3-0.9-6.4c-1.6-13.7,1.1-26.5,8.5-38.1
		c9.3-14.5,22.5-23.6,39.5-26.3c19.6-3.2,36.7,2.4,51,16.2c1,0.9,1.7,1.2,3.1,0.9c12-2.6,23.2-6.9,33.9-13c0.3-0.1,0.5-0.3,0.8-0.4
		c0.1,0,0.1,0,0.4,0c-4.6,13.5-13,24-24.9,31.7c11.3-1.2,22-4.2,32.4-8.7C397.6,168.3,397.8,168.4,397.8,168.5z"/>
</g>
</svg>
